<svg width="384px" height="88px" viewBox="417 3395 384 88" version="1.1" xmlns="http://www.w3.org/2000/svg" xmlns:xlink="http://www.w3.org/1999/xlink">
  <g id="docs" stroke="none" stroke-width="1" fill="none" fill-rule="evenodd" transform="translate(417.000000, 3395.000000)">
    <path d="M333.2,64.8 C339.6,69 349,72.4 357.6,72.4 C374.3,72.4 383.2,65.2 383.2,55.8 C383.2,46.8 373.8,43.1 365.3,40.8 C358.9,39.1 353.4,38 353.4,35.4 C353.4,33.4 355.5,32.6 360.7,32.6 C365.5,32.6 370.2,34.6 374.8,37.2 L382.4,27 C377.1,23.7 369.7,20 360.3,20 C345.7,20 336.3,26.4 336.3,36.2 C336.3,44.4 345.6,48.6 353.8,51 C360.3,52.9 366.1,54.2 366.1,56.8 C366.1,58.8 363.9,59.8 358,59.8 C352.2,59.8 346.6,57.6 340.8,54.2 L333.2,64.8 Z" id="s" fill="#333333"></path>
    <path d="M281.9,46.2 C281.9,62.8 294.1,72.4 309.9,72.4 C316.5,72.4 324.6,70.3 330.8,65.2 L324,54.4 C320.6,56.5 316.5,58.6 311.6,58.6 C304.6,58.6 299.5,53.8 299.5,46.2 C299.5,38.6 304.7,33.8 312.2,33.8 C315.4,33.8 318.6,34.7 322.3,37.2 L330.1,26.6 C325.9,22.6 319,20 311.2,20 C295.7,20 281.9,29.6 281.9,46.2 L281.9,46.2 Z" id="c" fill="#333333"></path>
    <path d="M227,46.2 C227,62.8 239.6,72.4 252.8,72.4 C266,72.4 278.6,62.8 278.6,46.2 C278.6,29.6 266,20 252.8,20 C239.6,20 227,29.6 227,46.2 Z M244.6,46.2 C244.6,38.6 247,33.8 252.8,33.8 C258.6,33.8 261,38.6 261,46.2 C261,53.8 258.6,58.6 252.8,58.6 C247,58.6 244.6,53.8 244.6,46.2 Z" id="o" fill="#333333"></path>
    <path d="M174.1,46.2 C174.1,62.4 182.3,72.4 195,72.4 C199.5,72.4 204.4,70 207.9,66.6 L208.3,66.6 L209.5,71.2 L223.5,71.2 L223.5,1.6 L206.3,1.6 L206.3,17.8 L206.9,25 C203.8,22 200.5,20 195,20 C184.5,20 174.1,29.8 174.1,46.2 Z M191.7,46 C191.7,37.2 195.5,34 199.7,34 C202.1,34 204.3,34.6 206.3,36.4 L206.3,54.8 C204.4,57.6 202.3,58.4 199.5,58.4 C194.6,58.4 191.7,55 191.7,46 Z" id="d" fill="#333333"></path>
    <path d="M163.3,31.6 C163.3,18.3 157,8.2 143.9,8.2 C127.4,8.2 115,21.9 115,46.3 C115,71.3 127.6,85.5 143.2,85.5 C149.6,85.5 154.9,83.6 159.8,79.9 L157.8,77.1 C153.9,80.2 149.2,81.9 143.2,81.9 C129.1,81.9 119,68.4 119,46.6 C119,24.5 129.9,11.7 143.6,11.7 C155,11.7 159.6,20.6 159.6,31.4 L159.6,32.8 C141.5,34.9 132.3,40.1 132.3,49.8 C132.3,58.1 138.3,62.4 145.2,62.4 C150.3,62.4 156.1,58.7 159.2,55 L159.6,55 L160.1,61.2 L163.3,61.2 L163.3,31.6 Z M136.4,49.8 C136.4,42.6 143,38.4 159.4,36.1 L159.4,50.8 C154.9,56.1 150,58.8 146,58.8 C140.2,58.8 136.4,55.5 136.4,49.8 Z" id="@" fill="#333333"></path>
    <path d="M37.6,0.2 L33.1,0.2 L0.4,87.2 L4.9,87.2 L37.6,0.2 Z M67.6,0.2 L63.1,0.2 L30.4,87.2 L34.9,87.2 L67.6,0.2 Z M97.6,0.2 L93.1,0.2 L60.4,87.2 L64.9,87.2 L97.6,0.2 Z" id="///" fill="#333333"></path>
  </g>
</svg>