<?xml version="1.0" encoding="UTF-8"?>
<svg width="384px" height="88px" viewBox="0 0 384 88" version="1.1" xmlns="http://www.w3.org/2000/svg" xmlns:xlink="http://www.w3.org/1999/xlink">
    <!-- Generator: Sketch 40.1 (33804) - http://www.bohemiancoding.com/sketch -->
    <title>docs</title>
    <desc>Created with Sketch.</desc>
    <defs></defs>
    <g id="Page-1" stroke="none" stroke-width="1" fill="none" fill-rule="evenodd">
        <g id="docs" fill="#333333">
            <path d="M333.2,68.8 C339.6,73 349,76.4 357.6,76.4 C374.3,76.4 383.2,69.2 383.2,59.8 C383.2,50.8 373.8,47.1 365.3,44.8 C358.9,43.1 353.4,42 353.4,39.4 C353.4,37.4 355.5,36.6 360.7,36.6 C365.5,36.6 370.2,38.6 374.8,41.2 L382.4,31 C377.1,27.7 369.7,24 360.3,24 C345.7,24 336.3,30.4 336.3,40.2 C336.3,48.4 345.6,52.6 353.8,55 C360.3,56.9 366.1,58.2 366.1,60.8 C366.1,62.8 363.9,63.8 358,63.8 C352.2,63.8 346.6,61.6 340.8,58.2 L333.2,68.8 Z" id="s"></path>
            <path d="M281.9,50.2 C281.9,66.8 294.1,76.4 309.9,76.4 C316.5,76.4 324.6,74.3 330.8,69.2 L324,58.4 C320.6,60.5 316.5,62.6 311.6,62.6 C304.6,62.6 299.5,57.8 299.5,50.2 C299.5,42.6 304.7,37.8 312.2,37.8 C315.4,37.8 318.6,38.7 322.3,41.2 L330.1,30.6 C325.9,26.6 319,24 311.2,24 C295.7,24 281.9,33.6 281.9,50.2 L281.9,50.2 Z" id="c"></path>
            <path d="M227,50.2 C227,66.8 239.6,76.4 252.8,76.4 C266,76.4 278.6,66.8 278.6,50.2 C278.6,33.6 266,24 252.8,24 C239.6,24 227,33.6 227,50.2 Z M244.6,50.2 C244.6,42.6 247,37.8 252.8,37.8 C258.6,37.8 261,42.6 261,50.2 C261,57.8 258.6,62.6 252.8,62.6 C247,62.6 244.6,57.8 244.6,50.2 Z" id="o"></path>
            <path d="M174.1,50.2 C174.1,66.4 182.3,76.4 195,76.4 C199.5,76.4 204.4,74 207.9,70.6 L208.3,70.6 L209.5,75.2 L223.5,75.2 L223.5,5.6 L206.3,5.6 L206.3,21.8 L206.9,29 C203.8,26 200.5,24 195,24 C184.5,24 174.1,33.8 174.1,50.2 Z M191.7,50 C191.7,41.2 195.5,38 199.7,38 C202.1,38 204.3,38.6 206.3,40.4 L206.3,58.8 C204.4,61.6 202.3,62.4 199.5,62.4 C194.6,62.4 191.7,59 191.7,50 Z" id="d"></path>
            <path d="M163.3,31.6 C163.3,18.3 157,8.2 143.9,8.2 C127.4,8.2 115,21.9 115,46.3 C115,71.3 127.6,85.5 143.2,85.5 C149.6,85.5 154.9,83.6 159.8,79.9 L157.8,77.1 C153.9,80.2 149.2,81.9 143.2,81.9 C129.1,81.9 119,68.4 119,46.6 C119,24.5 129.9,11.7 143.6,11.7 C155,11.7 159.6,20.6 159.6,31.4 L159.6,32.8 C141.5,34.9 132.3,40.1 132.3,49.8 C132.3,58.1 138.3,62.4 145.2,62.4 C150.3,62.4 156.1,58.7 159.2,55 L159.6,55 L160.1,61.2 L163.3,61.2 L163.3,31.6 Z M136.4,49.8 C136.4,42.6 143,38.4 159.4,36.1 L159.4,50.8 C154.9,56.1 150,58.8 146,58.8 C140.2,58.8 136.4,55.5 136.4,49.8 Z" id="@"></path>
            <path d="M37.6,0.2 L33.1,0.2 L0.4,87.2 L4.9,87.2 L37.6,0.2 Z M67.6,0.2 L63.1,0.2 L30.4,87.2 L34.9,87.2 L67.6,0.2 Z M97.6,0.2 L93.1,0.2 L60.4,87.2 L64.9,87.2 L97.6,0.2 Z" id="///"></path>
        </g>
    </g>
</svg>